<svg xmlns="http://www.w3.org/2000/svg" height="48" viewBox="0 96 960 960" width="48">
  <path fill="#0074d9" d="M446.956 544q-70.851 0-121.403-50.388Q275 443.224 275 372.381q0-71.844 50.388-122.112Q375.776 200 446.619 200q71.844 0 122.112 50.303Q619 300.606 619 372.044q0 70.851-50.303 121.403Q518.394 544 446.956 544ZM877 1036l-98.612-98q-23.607 15.429-47.717 20.714Q706.561 964 682.783 964q-77.493 0-131.638-53.797Q497 856.407 497 779.412t54.191-131.704Q605.382 593 682.941 593q77.142 0 131.601 54.208Q869 701.417 869 779q0 24.561-5.571 48.171Q857.857 850.781 842 873l99 99q13 14 13.5 33t-13.5 31q-13 15-32.5 15t-31.5-15ZM682.394 873q39.966 0 67.286-26.714Q777 819.571 777 779.606q0-39.966-27.031-67.786-27.03-27.82-66.73-27.82-40.119 0-67.179 27.419Q589 738.837 589 779.099q0 40.261 26.714 67.081Q642.429 873 682.394 873ZM195.81 926q-37.86 0-64.335-26.3Q105 873.4 105 835v-26.228q0-42.454 20.891-73.842Q146.781 703.542 186 684q46-25 130.5-42T495 625q-30 31-43 70.294-13 39.293-13 79.706 0 41.259 11.5 79.63Q462 893 486 926H195.81Z"/>
</svg>
